<svg xmlns="http://www.w3.org/2000/svg" version="1.1" xmlns:xlink="http://www.w3.org/1999/xlink" xmlns:svgjs="http://svgjs.dev/svgjs" viewBox="0 0 800 800" opacity="0.2"><defs><linearGradient x1="50%" y1="0%" x2="50%" y2="100%" id="gggyrate-grad"><stop stop-color="hsl(0, 0%, 0%)" stop-opacity="1" offset="0%"></stop><stop stop-color="hsl(0, 0%, 100%)" stop-opacity="1" offset="100%"></stop></linearGradient></defs><g stroke-width="3.5" stroke="url(#gggyrate-grad)" fill="none"><path d="M319.6328935535457 -759.1098242387554C369.36402125405675 -787.8169328596712 430.6358566756305 -787.8169328596712 480.3669843761418 -759.1017875342143L1363.6329602644719 -249.148774285905C1413.3640879649834 -220.4416656649894 1444.0000056757704 -167.3753055799092 1444.0000056757704 -109.95305163353646V909.9529748630823C1444.0000056757704 967.3752288094552 1413.3640879649834 1020.441588894535 1363.6329602644719 1049.156734219992L480.3669843761418 1559.109747468301C430.6358566756305 1587.8168560892168 369.36402125405675 1587.8168560892168 319.6328935535457 1559.10171076376L-563.6330823347845 1049.1486975154507C-613.3642100352956 1020.441588894535 -644.0001277460826 967.3752288094552 -644.0001277460826 909.9529748630823V-109.95305163353646C-644.0001277460826 -167.3753055799092 -613.3642100352956 -220.4416656649894 -563.6330823347845 -249.15681099044593L319.6328935535457 -759.1098242387554Z " transform="rotate(126, 400, 400)" opacity="0.05"></path><path d="M321.86531148163726 -726.9123274255912C370.21501896824543 -754.8220163625926 429.7848589614423 -754.8220163625926 478.13456644805024 -726.9045139628429L1336.8653763394823 -231.11686219365322C1385.2150838260904 -203.2071732566518 1415.000003822689 -151.61487872949056 1415.000003822689 -95.78768739273926V895.7876161456402C1415.000003822689 951.6148074823916 1385.2150838260904 1003.2071020095527 1336.8653763394823 1031.1246044093023L478.13456644805024 1526.9122561784916C429.7848589614423 1554.8219451154932 370.21501896824543 1554.8219451154932 321.86531148163726 1526.9044427157437L-536.8654984097948 1031.1167909465541C-585.215205896403 1003.2071020095527 -615.0001258930013 951.6148074823916 -615.0001258930013 895.7876161456402V-95.78768739273926C-615.0001258930013 -151.61487872949056 -585.215205896403 -203.2071732566518 -536.8654984097948 -231.12467565640134L321.86531148163726 -726.9123274255912Z " transform="rotate(122.5, 400, 400)" opacity="0.08"></path><path d="M324.0977294097288 -694.7148458712161C371.0660166824339 -721.8271151243032 428.9338612472536 -721.8271151243032 475.9021485199587 -694.7072556502605L1310.0977924144927 -213.0849653601906C1357.0660796871975 -185.97269610710362 1386.0000019696072 -135.8544671378612 1386.0000019696072 -81.62233841073134V881.6222421694085C1386.0000019696072 935.8543708965385 1357.0660796871975 985.9725998657809 1310.0977924144927 1013.0924593398231L475.9021485199587 1494.714749629893C428.9338612472536 1521.8270188829802 371.0660166824339 1521.8270188829802 324.0977294097288 1494.707159408938L-510.0979144848052 1013.0848691188678C-557.0662017575102 985.9725998657809 -586.00012403992 935.8543708965385 -586.00012403992 881.6222421694085V-81.62233841073134C-586.00012403992 -135.8544671378612 -557.0662017575102 -185.97269610710362 -510.0979144848052 -213.09255558114592L324.0977294097288 -694.7148458712161Z " transform="rotate(119, 400, 400)" opacity="0.10"></path><path d="M326.33014733782056 -662.5173490580519C371.91701439662233 -688.8321986272247 428.08286353306517 -688.8321986272247 473.66973059186694 -662.5099820788892L1283.330208489503 -195.05305326793894C1328.9170755483046 -168.73820369876614 1357.0000001165263 -120.0940402874428 1357.0000001165263 -67.45697416993437V867.4568834519662C1357.0000001165263 920.0939495694747 1328.9170755483046 968.738112980798 1283.330208489503 995.0603295291332L473.66973059186694 1462.5172583400836C428.08286353306517 1488.8321079092561 371.91701439662233 1488.8321079092561 326.33014733782056 1462.5098913609208L-483.3303305598155 995.0529625499707C-528.9171976186174 968.738112980798 -557.0001221868388 920.0939495694747 -557.0001221868388 867.4568834519662V-67.45697416993437C-557.0001221868388 -120.0940402874428 -528.9171976186174 -168.73820369876614 -483.3303305598155 -195.06042024710143L326.33014733782056 -662.5173490580519Z " transform="rotate(115.5, 400, 400)" opacity="0.13"></path><path d="M328.5626873362246 -630.3198522448877C372.7681341811235 -655.8372821301461 427.231987889189 -655.8372821301461 471.4374347340879 -630.3127085075178L1256.562746634826 -177.02114117568726C1300.7681934797247 -151.5037112904289 1328.0001203337579 -104.33361343702427 1328.0001203337579 -53.291609929137394V853.2915247345238C1328.0001203337579 904.3335282424107 1300.7681934797247 951.5036260958152 1256.562746634826 977.0281997184431L471.4374347340879 1430.319767050274C427.231987889189 1455.8371969355321 372.7681341811235 1455.8371969355321 328.5626873362246 1430.3126233129042L-456.5626245645133 977.0210559810737C-500.76807140941213 951.5036260958152 -527.9999982634449 904.3335282424107 -527.9999982634449 853.2915247345238V-53.291609929137394C-527.9999982634449 -104.33361343702427 -500.76807140941213 -151.5037112904289 -456.5626245645133 -177.02828491305695L328.5626873362246 -630.3198522448877Z " transform="rotate(112, 400, 400)" opacity="0.16"></path><path d="M330.79510526431613 -598.1222943965672C373.61913189531197 -622.8423045979114 426.38099017500053 -622.8423045979114 469.20501680599637 -598.1153739009901L1229.7951627098362 -158.98916804827923C1272.6191893408318 -134.2691578469353 1299.000118480676 -88.5731255514495 1299.000118480676 -39.126184653184055V839.1262270522375C1299.000118480676 888.5731679505029 1272.6191893408318 934.2692002459887 1229.7951627098362 958.9961309429095L469.20501680599637 1398.1223367956204C426.38099017500053 1422.8423469969644 373.61913189531197 1422.8423469969644 330.79510526431613 1398.1154163000438L-429.7950406395237 958.9892104473327C-472.61906727051934 934.2692002459887 -498.9999964103637 888.5731679505029 -498.9999964103637 839.1262270522375V-39.126184653184055C-498.9999964103637 -88.5731255514495 -472.61906727051934 -134.2691578469353 -429.7950406395237 -158.9960885438561L330.79510526431613 -598.1222943965672Z " transform="rotate(108.5, 400, 400)" opacity="0.19"></path><path d="M333.02746215725165 -565.924797583403C374.47006857434417 -589.8473881008327 425.52993142565583 -589.8473881008327 466.97253784274835 -565.9181003296187L1203.0275177496903 -140.95725595602767C1244.4701241667829 -117.03466543859781 1270.0000555924387 -72.81269870103097 1270.0000555924387 -24.96082041238708V824.9608683347951C1270.0000555924387 872.8127466234394 1244.4701241667829 917.034713361006 1203.0275177496903 940.9640011322199L466.97253784274835 1365.9248455058114C425.52993142565583 1389.8474360232408 374.47006857434417 1389.8474360232408 333.02746215725165 1365.918148252027L-403.0275177496902 940.9573038784358C-444.47012416678285 917.034713361006 -470.0000555924386 872.8127466234394 -470.0000555924386 824.9608683347951V-24.96082041238708C-470.0000555924386 -72.81269870103097 -444.47012416678285 -117.03466543859781 -403.0275177496902 -140.96395320981173L333.02746215725165 -565.924797583403Z " transform="rotate(105, 400, 400)" opacity="0.21"></path><path d="M335.2598800853432 -533.7273007702388C375.3210662885326 -556.8524716037542 424.6789337114674 -556.8524716037542 464.7401199146568 -533.7208267582473L1176.2599338247005 -122.92534386377588C1216.32112002789 -99.80017303026057 1241.0000537393573 -57.05227185061267 1241.0000537393573 -10.795456171590104V810.7955096173528C1241.0000537393573 857.0523252963753 1216.32112002789 899.8002264760232 1176.2599338247005 922.93187132153L464.7401199146568 1333.727354216001C424.6789337114674 1356.8525250495168 375.3210662885326 1356.8525250495168 335.2598800853432 1333.7208802040104L-376.25993382470057 922.9253973095385C-416.32112002789006 899.8002264760232 -441.0000537393573 857.0523252963753 -441.0000537393573 810.7955096173528V-10.795456171590104C-441.0000537393573 -57.05227185061267 -416.32112002789006 -99.80017303026057 -376.25993382470057 -122.93181787576714L335.2598800853432 -533.7273007702388Z " transform="rotate(101.5, 400, 400)" opacity="0.24"></path><path d="M337.49229801343483 -501.5298039570746C376.1720640027213 -523.8575551066757 423.8279359972787 -523.8575551066757 462.5077019865653 -501.5235531868759L1149.492349899711 -104.8934317715242C1188.1721158889975 -82.5656806219231 1212.0000518862762 -41.29184500019403 1212.0000518862762 3.3699080692069856V796.6301508999104C1212.0000518862762 841.2919039693113 1188.1721158889975 882.5657395910405 1149.492349899711 904.8997415108402L462.5077019865653 1301.5298629261915C423.8279359972787 1323.8576140757928 376.1720640027213 1323.8576140757928 337.49229801343483 1301.5236121559933L-349.49234989971086 904.8934907406415C-388.1721158889973 882.5657395910405 -412.000051886276 841.2919039693113 -412.000051886276 796.6301508999104V3.3699080692069856C-412.000051886276 -41.29184500019403 -388.1721158889973 -82.5656806219231 -349.49234989971086 -104.89968254172277L337.49229801343483 -501.5298039570746Z " transform="rotate(98, 400, 400)" opacity="0.27"></path><path d="M339.7247159415265 -469.33236817906663C377.02306171691 -490.86269964475343 422.97693828309 -490.86269964475343 460.2752840584735 -469.32634065066077L1122.724765974721 -86.86158071442878C1160.0231117501046 -65.33124924874198 1183.0000500331948 -25.531479184931754 1183.0000500331948 17.535211274847825V782.464731147312C1183.0000500331948 825.5314216070915 1160.0231117501046 865.3311916709015 1122.724765974721 886.867550664994L460.2752840584735 1269.3323106012263C422.97693828309 1290.862642066913 377.02306171691 1290.862642066913 339.7247159415265 1269.3262830728204L-322.7247659747212 886.8615231365882C-360.0231117501046 865.3311916709015 -383.0000500331947 825.5314216070915 -383.0000500331947 782.464731147312V17.535211274847825C-383.0000500331947 -25.531479184931754 -360.0231117501046 -65.33124924874198 -322.7247659747212 -86.86760824283442L339.7247159415265 -469.33236817906663Z " transform="rotate(94.5, 400, 400)" opacity="0.29"></path><path d="M341.957133869618 -437.13482558953524C377.8740594310983 -457.86773737130767 422.12594056890157 -457.86773737130767 458.042866130382 -437.1290213029222L1095.9571820497317 -68.82962284580981C1131.874107611212 -48.096711064037436 1154.0000481801135 -9.771006558146155 1154.0000481801135 31.700621292011874V768.2994182062366C1154.0000481801135 809.7710460563947 1131.874107611212 848.0967505622859 1095.9571820497317 868.8354666306714L458.042866130382 1237.1348650877835C422.12594056890157 1257.867776869556 377.8740594310983 1257.867776869556 341.957133869618 1237.1290608011707L-295.9571820497315 868.8296623440583C-331.8741076112118 848.0967505622859 -354.0000481801135 809.7710460563947 -354.0000481801135 768.2994182062366V31.700621292011874C-354.0000481801135 -9.771006558146155 -331.8741076112118 -48.096711064037436 -295.9571820497315 -68.83542713242275L341.957133869618 -437.13482558953524Z " transform="rotate(91, 400, 400)" opacity="0.32"></path><path d="M344.18955179770967 -404.93732877637103C378.7250571452869 -424.87282087422915 421.2749428547131 -424.87282087422915 455.81044820229044 -404.9317477315508L1069.189598124742 -50.79771075355825C1103.725103472319 -30.862218655699962 1125.0000463270321 5.989420292272257 1125.0000463270321 45.86598553280896V754.134059488794C1125.0000463270321 794.0106247293309 1103.725103472319 830.8622636773032 1069.189598124742 850.8033368199815L455.81044820229044 1204.9373737979738C421.2749428547131 1224.8728658958319 378.7250571452869 1224.8728658958319 344.18955179770967 1204.931792753154L-269.18959812474185 850.7977557751612C-303.72510347231906 830.8622636773032 -325.0000463270322 794.0106247293309 -325.0000463270322 754.134059488794V45.86598553280896C-325.0000463270322 5.989420292272257 -303.72510347231906 -30.862218655699962 -269.18959812474185 -50.80329179837827L344.18955179770967 -404.93732877637103Z " transform="rotate(87.5, 400, 400)" opacity="0.35"></path><path d="M346.4219392082232 -372.7398929983631C379.5760243418973 -391.8779654123068 420.4239146229464 -391.8779654123068 453.57799975662056 -372.7345351953356L1042.4219836821742 -32.76585969646271C1075.576068815848 -13.627787282518852 1096.0000139563729 21.749786107534646 1096.0000139563729 60.0312887384498V739.9686397361957C1096.0000139563729 778.2501423671108 1075.576068815848 813.6277157571642 1042.4219836821742 832.7711459741354L453.57799975662056 1172.7398214730083C420.4239146229464 1191.877893886952 379.5760243418973 1191.877893886952 346.4219392082232 1172.7344636699809L-242.42204471733032 832.7657881711079C-275.5761298510044 813.6277157571642 -296.000074991529 778.2501423671108 -296.000074991529 739.9686397361957V60.0312887384498C-296.000074991529 21.749786107534646 -275.5761298510044 -13.627787282518852 -242.42204471733032 -32.77121749948992L346.4219392082232 -372.7398929983631Z " transform="rotate(84, 400, 400)" opacity="0.38"></path><path d="M348.65435713631473 -340.54233515004256C380.4270220560858 -358.88298788007205 419.572916908758 -358.88298788007205 451.345581828529 -340.53720058880793L1015.6543997571844 -14.733886569054675C1047.4270646769555 3.6067661609747574 1067.0000121032915 37.51027399310931 1067.0000121032915 74.19671401440291V725.8033420539095C1067.0000121032915 762.489782075203 1047.4270646769555 796.3932899073377 1015.6543997571844 814.7390771986018L451.345581828529 1140.5423912183549C419.572916908758 1158.8830439483843 380.4270220560858 1158.8830439483843 348.65435713631473 1140.5372566571205L-215.65446079234061 814.7339426373671C-247.42712571211166 796.3932899073377 -267.0000731384477 762.489782075203 -267.0000731384477 725.8033420539095V74.19671401440291C-267.0000731384477 37.51027399310931 -247.42712571211166 3.6067661609747574 -215.65446079234061 -14.739021130289302L348.65435713631473 -340.54233515004256Z " transform="rotate(80.5, 400, 400)" opacity="0.40"></path><path d="M350.8867750644064 -308.34483833687835C381.27801977027434 -325.88807138299353 418.7219191945694 -325.88807138299353 449.11316390043737 -308.33992701743654L988.8868158321948 3.298025523196884C1019.2780605380626 20.841258569312117 1038.0000102502104 53.27070084352772 1038.0000102502104 88.3620782552V711.637983336467C1038.0000102502104 746.7293607481392 1019.2780605380626 779.158803022355 988.8868158321948 796.7069473879117L449.11316390043737 1108.3448999285451C418.7219191945694 1125.8881329746603 381.27801977027434 1125.8881329746603 350.8867750644064 1108.3399886091036L-188.88687686735096 796.7020360684701C-219.27812157321887 779.158803022355 -238.00007128536646 746.7293607481392 -238.00007128536646 711.637983336467V88.3620782552C-238.00007128536646 53.27070084352772 -219.27812157321887 20.841258569312117 -188.88687686735096 3.2931142037552945L350.8867750644064 -308.34483833687835Z " transform="rotate(77, 400, 400)" opacity="0.43"></path><path d="M353.11919299249803 -276.1474025588704C382.1290174844629 -292.89321592107126 417.87092148038084 -292.89321592107126 446.8807459723457 -276.1427144812214L962.119231907205 21.32987658029242C991.1290563991699 38.07568994249323 1009.0000083971288 69.03106665879 1009.0000083971288 102.52738146084084V697.4725635838684C1009.0000083971288 730.9688783859192 991.1290563991699 761.924255102216 962.119231907205 778.6747565420658L446.8807459723457 1076.1473476035794C417.87092148038084 1092.8931609657805 382.1290174844629 1092.8931609657805 353.11919299249803 1076.1426595259306L-162.1192929423613 778.6700684644168C-191.12911743432613 761.924255102216 -209.00006943228516 730.9688783859192 -209.00006943228516 697.4725635838684V102.52738146084084C-209.00006943228516 69.03106665879 -191.12911743432613 38.07568994249323 -162.1192929423613 21.325188502643527L353.11919299249803 -276.1474025588704Z " transform="rotate(73.5, 400, 400)" opacity="0.46"></path><path d="M355.35161092058956 -243.94984471054994C382.98001519865136 -259.89823838883643 417.0199237661924 -259.89823838883643 444.6483280442542 -243.94537987469374L935.3516479822154 39.36184970770046C962.980052260277 55.31024338598684 980.0000065440477 84.79155454436477 980.0000065440477 116.69280673679407V683.3072659015822C980.0000065440477 715.2085180940117 962.980052260277 744.6898292523892 935.3516479822154 760.6426877665319L444.6483280442542 1043.9499173489262C417.0199237661924 1059.8983110272127 382.98001519865136 1059.8983110272127 355.35161092058956 1043.94545251307L-135.3517090173716 760.638222930676C-162.98011329543334 744.6898292523892 -180.00006757920386 715.2085180940117 -180.00006757920386 683.3072659015822V116.69280673679407C-180.00006757920386 84.79155454436477 -162.98011329543334 55.31024338598684 -135.3517090173716 39.35738487184426L355.35161092058956 -243.94984471054994Z " transform="rotate(70, 400, 400)" opacity="0.48"></path><path d="M357.5840288486812 -211.7523631561748C383.8310129128398 -226.90333715054695 416.16892605200394 -226.90333715054695 442.41591011616254 -211.7481215621114L908.5840640572255 57.393746541162955C934.8310481213844 72.54472053553513 951.0000046909663 100.55196613599423 951.0000046909663 130.85815571880198V669.1418919253506C951.0000046909663 699.4480815081588 934.8310481213844 727.4553271086177 908.5840640572255 742.610542697053L442.41591011616254 1011.7524108003274C416.16892605200394 1026.9033847946996 383.8310129128398 1026.9033847946996 357.5840288486812 1011.748169206264L-108.58412509238195 742.6063011029898C-134.8311091565406 727.4553271086177 -151.00006572612256 699.4480815081588 -151.00006572612256 669.1418919253506V130.85815571880198C-151.00006572612256 100.55196613599423 -134.8311091565406 72.54472053553513 -108.58412509238195 57.389504947099795L357.5840288486812 -211.7523631561748Z " transform="rotate(66.5, 400, 400)" opacity="0.51"></path><path d="M359.81644677677286 -179.55492737816684C384.6820106270284 -193.90848168862468 415.31792833781526 -193.90848168862468 440.1834921880709 -179.55090902589626L881.8164801322359 75.42559759825849C906.6820439824917 89.77915190871624 922.0000028378852 116.31233195125628 922.0000028378852 145.0234589244427V654.976472172752C922.0000028378852 683.6875991459385 906.6820439824917 710.2207791884784 881.8164801322359 724.5783518512069L440.1834921880709 979.5548584753615C415.31792833781526 993.9084127858193 384.6820106270284 993.9084127858193 359.81644677677286 979.5508401230909L-81.81654116739224 724.5743334989363C-106.68210501764781 710.2207791884784 -122.00006387304131 683.6875991459385 -122.00006387304131 654.976472172752V145.0234589244427C-122.00006387304131 116.31233195125628 -106.68210501764781 89.77915190871624 -81.81654116739224 75.42157924598791L359.81644677677286 -179.55492737816684Z " transform="rotate(63, 400, 400)" opacity="0.54"></path><path d="M362.0488647048644 -147.35736952984638C385.53300834121694 -160.91350415638988 414.4669306236268 -160.91350415638988 437.95107425997935 -147.35357441936856L855.0488962072463 93.45757072566641C878.5330398435988 107.01370535220985 893.0000009848036 132.07281983683106 893.0000009848036 159.18888420039605V640.8111744904659C893.0000009848036 667.927238854031 878.5330398435988 692.9863533386522 855.0488962072463 706.5462830756733L437.95107425997935 947.3574282207082C414.4669306236268 960.9135628472518 385.53300834121694 960.9135628472518 362.0488647048644 947.3536331102307L-55.048957242402594 706.5424879651955C-78.53310087875508 692.9863533386522 -93.00006201996001 667.927238854031 -93.00006201996001 640.8111744904659V159.18888420039605C-93.00006201996001 132.07281983683106 -78.53310087875508 107.01370535220985 -55.048957242402594 93.45377561518876L362.0488647048644 -147.35736952984638Z " transform="rotate(59.5, 400, 400)" opacity="0.57"></path><path d="M364.28128263295605 -115.15985745789305C386.3840060554055 -127.91857240052227 413.61593290943824 -127.91857240052227 435.7186563318877 -115.1562855892081L828.2813122822567 111.48949807670715C850.3840357047061 124.24821301933633 863.9999991317227 147.83326194603865 863.9999991317227 173.35426369998208V626.6458310318127C863.9999991317227 652.166832785756 850.3840357047061 675.7518817124583 828.2813122822567 688.5141685237722L435.7186563318877 915.1599521896878C413.61593290943824 927.9186671323168 386.3840060554055 927.9186671323168 364.28128263295605 915.1563803210029L-28.281373317412886 688.5105966550877C-50.38409673986229 675.7518817124583 -64.00006016687871 652.166832785756 -64.00006016687871 626.6458310318127V173.35426369998208C-64.00006016687871 147.83326194603865 -50.38409673986229 124.24821301933633 -28.281373317412886 111.4859262080223L364.28128263295605 -115.15985745789305Z " transform="rotate(56, 400, 400)" opacity="0.59"></path><path d="M366.5137005610477 -82.96243693867416C387.23500376959396 -94.92373219738906 412.7649351952498 -94.92373219738906 433.48623840379605 -82.95908831178201L801.5137283572672 129.5213338750135C822.2350315658132 141.48262913372844 834.9999972786413 163.59361250251186 834.9999972786413 187.51955164683386V612.4803960204249C834.9999972786413 636.406335164747 822.2350315658132 658.5173185335303 801.5137283572672 670.4819624191373L433.48623840379605 882.962384605933C412.7649351952498 894.9236798646477 387.23500376959396 894.9236798646477 366.5137005610477 882.9590359790409L-1.5137893924232344 670.4786137922453C-22.23509260096955 658.5173185335303 -35.00005831379741 636.406335164747 -35.00005831379741 612.4803960204249V187.51955164683386C-35.00005831379741 163.59361250251186 -22.23509260096955 141.48262913372844 -1.5137893924232344 129.51798524812148L366.5137005610477 -82.96243693867416Z " transform="rotate(52.5, 400, 400)" opacity="0.62"></path><path d="M368.74611848913923 -50.7648790903537C388.0860014837825 -61.92875466515426 411.9139374810612 -61.92875466515426 431.2538204757045 -50.761753705254364L774.7461444322773 147.5533070024215C794.0860274269207 158.71718257722205 805.99999542556 179.35410038808658 805.99999542556 201.6849769227871V598.3150983381388C805.99999542556 620.6459748728392 794.0860274269207 641.2828926837038 774.7461444322773 652.4498936436037L431.2538204757045 850.7649543512794C411.9139374810612 861.92882992608 388.0860014837825 861.92882992608 368.74611848913923 850.7618289661802L25.253794532566417 652.4467682585043C5.913911537923184 641.2828926837038 -6.000056460716166 620.6459748728392 -6.000056460716166 598.3150983381388V201.6849769227871C-6.000056460716166 179.35410038808658 5.913911537923184 158.71718257722205 25.253794532566417 147.5501816173222L368.74611848913923 -50.7648790903537Z " transform="rotate(49, 400, 400)" opacity="0.65"></path><path d="M370.9785364172309 -18.567382277189495C388.9369991979711 -28.93383816807571 411.06293976687266 -28.93383816807571 429.02140254761287 -18.564480133882967L747.9785605072877 165.58521909467322C765.9370232880278 175.9516749855594 776.9999935724786 195.11452723850505 776.9999935724786 215.85034116358406V584.1497396206964C776.9999935724786 604.8855535457755 765.9370232880278 624.0484057987211 747.9785605072877 634.4177638329138L429.02140254761287 818.5674630614699C411.06293976687266 828.9339189523562 388.9369991979711 828.9339189523562 370.9785364172309 818.5645609181634L52.021378457556125 634.4148616896073C34.062915676815976 624.0484057987211 22.999945392365134 604.8855535457755 22.999945392365134 584.1497396206964V215.85034116358406C22.999945392365134 195.11452723850505 34.062915676815976 175.9516749855594 52.021378457556125 165.58231695136675L370.9785364172309 -18.567382277189495Z " transform="rotate(45.5, 400, 400)" opacity="0.67"></path><path d="M373.2110153804788 13.630053500818462C389.7880579473158 4.061017293846589 410.21200308784046 4.061017293846589 426.78904565467747 13.63273240233218L721.2110376174543 183.61707015176864C737.7880801842912 193.18610635874057 748.0000527545536 210.87489305376732 748.0000527545536 230.0156443692249V569.9843198680978C748.0000527545536 589.1250711835554 737.7880801842912 606.8138578785821 721.2110376174543 616.3855729870677L426.78904565467747 786.3699107365042C410.21200308784046 795.9389469434759 389.7880579473158 795.9389469434759 373.2110153804788 786.3672318349904L78.78902341770203 616.382894085554C62.21198085086496 606.8138578785821 52.000008280602685 589.1250711835554 52.000008280602685 569.9843198680978V230.0156443692249C52.000008280602685 210.87489305376732 62.21198085086496 193.18610635874057 78.78902341770203 183.61439125025504L373.2110153804788 13.630053500818462Z " transform="rotate(42, 400, 400)" opacity="0.70"></path><path d="M375.4434333085703 45.82755031398267C390.63905566150436 37.05593379092511 409.3610053736519 37.05593379092511 424.55662772658593 45.83000597370358L694.4434536924646 201.64898224402032C709.6390760453985 210.42059876707793 719.0000509014724 226.63531990418574 719.0000509014724 244.18100861002188V555.8189611506554C719.0000509014724 573.3646498564915 709.6390760453985 589.5793709935994 694.4434536924646 598.3534431763777L424.55662772658593 754.1724194466944C409.3610053736519 762.944035969752 390.63905566150436 762.944035969752 375.4434333085703 754.1699637869737L105.55660734269173 598.3509875166569C90.36098498975775 589.5793709935994 81.00001013368399 573.3646498564915 81.00001013368399 555.8189611506554V244.18100861002188C81.00001013368399 226.63531990418574 90.36098498975775 210.42059876707793 105.55660734269173 201.64652658429952L375.4434333085703 45.82755031398267Z " transform="rotate(38.5, 400, 400)" opacity="0.73"></path><path d="M377.67585123666197 78.025077644725C391.4900533756929 70.05088080558178 408.5100076594633 70.05088080558178 422.3242097984943 78.02731006265316L667.6758697674749 219.68092485385023C681.4900719065057 227.65512169299342 690.000049048391 242.39577727218239 690.000049048391 258.34640336839703V541.6536329507911C690.000049048391 557.6042590470058 681.4900719065057 572.3449146261946 667.6758697674749 580.321343883266L422.3242097984943 721.9749586744631C408.5100076594633 729.9491555136063 391.4900533756929 729.9491555136063 377.67585123666197 721.972726256535L132.32419126768139 580.319111465338C118.50998912865049 572.3449146261946 110.00001198676523 557.6042590470058 110.00001198676523 541.6536329507911V258.34640336839703C110.00001198676523 242.39577727218239 118.50998912865049 227.65512169299342 132.32419126768139 219.67869243592213L377.67585123666197 78.025077644725Z " transform="rotate(35, 400, 400)" opacity="0.76"></path><path d="M379.9082691647536 110.22254394031114C392.3410510898814 103.04576678508221 407.6590099452749 103.04576678508221 420.09179187040263 110.22455311644643L640.9082858424852 237.71280642852378C653.341067767613 244.88958358375265 661.0000471953098 258.1561736050227 661.0000471953098 272.5117370916159V527.4882437157705C661.0000471953098 541.8438072023638 653.341067767613 555.1103972236338 640.9082858424852 562.289183554998L420.09179187040263 689.7774368670753C407.6590099452749 696.9542140223042 392.3410510898814 696.9542140223042 379.9082691647536 689.77542769094L159.09177519267104 562.2871743788627C146.65899326754328 555.1103972236338 139.00001383984653 541.8438072023638 139.00001383984653 527.4882437157705V272.5117370916159C139.00001383984653 258.1561736050227 146.65899326754328 244.88958358375265 159.09177519267104 237.7107972523885L379.9082691647536 110.22254394031114Z " transform="rotate(31.5, 400, 400)" opacity="0.78"></path><path d="M382.1406565752671 142.42004075347535C393.1920182864918 136.04068328216073 406.8079817135082 136.04068328216073 417.85934342473297 142.42182668781783L614.1406713999174 255.74471852077545C625.1920331111421 262.12407599209007 632.0000148246504 273.9166004554412 632.0000148246504 286.6771013324129V513.3228849983282C632.0000148246504 526.0833858752999 625.1920331111421 537.875910338651 614.1406713999174 544.257053744308L417.85934342473297 657.5799455772658C406.8079817135082 663.9593030485803 393.1920182864918 663.9593030485803 382.1406565752671 657.5781596429233L185.85932860008262 544.2552678099657C174.8079668888579 537.875910338651 167.9999851753497 526.0833858752999 167.9999851753497 513.3228849983282V286.6771013324129C167.9999851753497 273.9166004554412 174.8079668888579 262.12407599209007 185.85932860008262 255.74293258643303L382.1406565752671 142.42004075347535Z " transform="rotate(28, 400, 400)" opacity="0.81"></path><path d="M384.3730745033587 174.61753756663956C394.0430160006803 169.03559977923928 405.9569839993197 169.03559977923928 415.6269254966413 174.61910025918922L587.3730874749277 273.7766306130271C597.0430289722494 279.35856840042743 603.000012971569 289.6770273058597 603.000012971569 300.84246557320995V499.1575262808858C603.000012971569 510.3229645482361 597.0430289722494 520.6414234536683 587.3730874749277 526.2249239336182L415.6269254966413 625.3824542874561C405.9569839993197 630.9643920748564 394.0430160006803 630.9643920748564 384.3730745033587 625.3808915949065L212.62691252507227 526.2233612410686C202.95697102775068 520.6414234536683 196.999987028431 510.3229645482361 196.999987028431 499.1575262808858V300.84246557320995C196.999987028431 289.6770273058597 202.95697102775068 279.35856840042743 212.62691252507227 273.7750679204775L384.3730745033587 174.61753756663956Z " transform="rotate(24.5, 400, 400)" opacity="0.84"></path><path d="M386.60549243145033 206.81503437980376C394.89401371486883 202.03051627631783 405.10598628513117 202.03051627631783 413.39450756854967 206.81637383056062L560.605503549938 291.80854270527885C568.8940248333565 296.5930608087648 574.0000111184877 305.4374541562782 574.0000111184877 315.007829814007V484.99216756344345C574.0000111184877 494.5625432211723 568.8940248333565 503.4069365686855 560.605503549938 508.1927941229284L413.39450756854967 593.1849629976466C405.10598628513117 597.9694811011325 394.89401371486883 597.9694811011325 386.60549243145033 593.1836235468897L239.39449645006198 508.1914546721715C231.10597516664342 503.4069365686855 225.99998888151225 494.5625432211723 225.99998888151225 484.99216756344345V315.007829814007C225.99998888151225 305.4374541562782 231.10597516664342 296.5930608087648 239.39449645006198 291.80720325452205L386.60549243145033 206.81503437980376Z " transform="rotate(21, 400, 400)" opacity="0.86"></path><path d="M388.8379103595419 239.0125159341789C395.7450114290574 235.02541751460728 404.2549885709426 235.02541751460728 411.1620896404581 239.01363214314296L533.8379196249484 309.8404395387415C540.7450206944638 313.8275379583131 545.0000092654064 321.1978657479076 545.0000092654064 329.1731787960149V470.82679358721197C545.0000092654064 478.8021066353193 540.7450206944638 486.1724344249137 533.8379196249484 490.1606490534494L411.1620896404581 560.987456449048C404.2549885709426 564.9745548686196 395.7450114290574 564.9745548686196 388.8379103595419 560.9863402400839L266.16208037505163 490.1595328444854C259.2549793055362 486.1724344249137 254.99999073459355 478.8021066353193 254.99999073459355 470.82679358721197V329.1731787960149C254.99999073459355 321.1978657479076 259.2549793055362 313.8275379583131 266.16208037505163 309.83932332977747L388.8379103595419 239.0125159341789Z " transform="rotate(17.5, 400, 400)" opacity="0.89"></path><path d="M391.0703282876335 271.21001274734317C396.5960091432459 268.0203340116858 403.4039908567541 268.0203340116858 408.9296717123665 271.2109057145144L507.0703356999587 327.8723516309932C512.596016555571 331.0620303666505 516.0000074123252 336.95829259832607 516.0000074123252 343.3385430368119V456.66143486976955C516.0000074123252 463.0416853082554 512.596016555571 468.937947539931 507.0703356999587 472.12851924275947L408.9296717123665 528.7899651592384C403.4039908567541 531.9796438948956 396.5960091432459 531.9796438948956 391.0703282876335 528.7890721920671L292.9296643000413 472.12762627558834C287.40398344442895 468.937947539931 283.99999258767485 463.0416853082554 283.99999258767485 456.66143486976955V343.3385430368119C283.99999258767485 336.95829259832607 287.40398344442895 331.0620303666505 292.9296643000413 327.87145866382195L391.0703282876335 271.21001274734317Z " transform="rotate(14, 400, 400)" opacity="0.92"></path><path d="M393.30274621572516 303.40752481929644C397.4470068574344 301.01526576755344 402.5529931425656 301.01526576755344 406.69725378427484 303.40819454467487L480.302751774969 345.904278982034C484.44701241667826 348.2965380337769 487.00000555924385 352.7187347075336 487.00000555924385 357.503922536398V442.49609141111625C487.00000555924385 447.2812792399807 484.44701241667826 451.7034759137373 480.302751774969 454.0964046908587L406.69725378427484 496.59248912821784C402.5529931425656 498.9847481799608 397.4470068574344 498.9847481799608 393.30274621572516 496.5918194028394L319.697248225031 454.0957349654803C315.55298758332174 451.7034759137373 312.99999444075615 447.2812792399807 312.99999444075615 442.49609141111625V357.503922536398C312.99999444075615 352.7187347075336 315.55298758332174 348.2965380337769 319.697248225031 345.90360925665556L393.30274621572516 303.40752481929644Z " transform="rotate(10.5, 400, 400)" opacity="0.95"></path><path d="M395.53516414381676 335.6050140030661C398.298004571623 334.0101746352375 401.701995428377 334.0101746352375 404.46483585618324 335.60546048665174L453.53516784997936 363.9361834448911C456.2980082777855 365.53102281271975 458.0000037061626 368.4791539285576 458.0000037061626 371.66927914780047V428.3307250642793C458.0000037061626 431.52085028352224 456.2980082777855 434.46898139936 453.53516784997936 436.06426725077426L404.46483585618324 464.3949902090137C401.701995428377 465.98982957684234 398.298004571623 465.98982957684234 395.53516414381676 464.3945437254281L346.46483215002064 436.0638207671887C343.7019917222145 434.46898139936 341.9999962938374 431.52085028352224 341.9999962938374 428.3307250642793V371.66927914780047C341.9999962938374 368.4791539285576 343.7019917222145 365.53102281271975 346.46483215002064 363.9357369613055L395.53516414381676 335.6050140030661Z " transform="rotate(7, 400, 400)" opacity="0.97"></path><path d="M397.7675820719084 367.80249555744126C399.1490022858115 367.00507587352695 400.8509977141885 367.00507587352695 402.2324179280916 367.80271879923407L426.7675839249897 381.9680802783538C428.1490041388928 382.7654999622681 429.0000018530813 384.239565520187 429.0000018530813 385.83462812980844V414.1653510880479C429.0000018530813 415.7604136976693 428.1490041388928 417.2344792555882 426.7675839249897 418.03212218129534L402.2324179280916 432.19748366041506C400.8509977141885 432.9949033443294 399.1490022858115 432.9949033443294 397.7675820719084 432.19726041862225L373.23241607501035 418.0318989395025C371.85099586110726 417.2344792555882 370.9999981469187 415.7604136976693 370.9999981469187 414.1653510880479V385.83462812980844C370.9999981469187 384.239565520187 371.85099586110726 382.7654999622681 373.23241607501035 381.967857036561L397.7675820719084 367.80249555744126Z " transform="rotate(3.5, 400, 400)" opacity="1.00"></path></g></svg>